Coordinates
version=1
nRows=7
nColumns=40
inDegrees=yes

Units are S.I. units (second, meters, Newtons, ...)
Angles are in degrees.

endheader
time	pelvis_tilt	pelvis_list	pelvis_rotation	pelvis_tx	pelvis_ty	pelvis_tz	hip_flexion_r	hip_adduction_r	hip_rotation_r	knee_angle_r	knee_angle_r_beta	ankle_angle_r	subtalar_angle_r	mtp_angle_r	hip_flexion_l	hip_adduction_l	hip_rotation_l	knee_angle_l	knee_angle_l_beta	ankle_angle_l	subtalar_angle_l	mtp_angle_l	lumbar_extension	lumbar_bending	lumbar_rotation	arm_flex_r	arm_add_r	arm_rot_r	elbow_flex_r	pro_sup_r	wrist_flex_r	wrist_dev_r	arm_flex_l	arm_add_l	arm_rot_l	elbow_flex_l	pro_sup_l	wrist_flex_l	wrist_dev_l
     34.61750000	     -1.96735167	     -4.13435775	     -1.98468453	      0.95916879	      0.91552887	      0.43224168	     24.07198696	     -7.45575365	     -6.37649970	     65.52184361	     65.52184361	      8.48581488	    -19.51365373	     19.39082262	     15.97613753	     -1.71034372	     -4.87514803	     32.97217272	     32.97217272	     22.12038613	    -18.13028290	      9.91002548	    -11.96328727	      7.82903365	      1.93690711	     17.07609900	    -13.67938520	    -10.27108262	     27.46355965	     46.88404759	      0.00000000	      0.00000000	     19.85416777	    -16.48512962	     10.19665641	     48.22805710	     45.84874005	      0.00000000	      0.00000000
     34.63700000	     -1.89492240	     -4.19067878	     -2.64674602	      0.95793453	      0.91563863	      0.43223189	     24.99918802	     -6.95196791	     -5.97095117	     64.75729054	     64.75729054	      9.16634257	    -19.47405028	     19.04215720	     15.37756800	     -1.82802355	     -5.40048740	     32.78761989	     32.78761989	     22.43609374	    -18.18729865	      9.95851545	    -12.19329917	      8.14287227	      1.98313713	     13.87106336	    -13.43162230	    -10.40740858	     25.79439288	     46.93327525	      0.00000000	      0.00000000	     21.03719680	    -16.65028608	      9.71989150	     49.11853243	     45.92301648	      0.00000000	      0.00000000
     34.65650000	     -1.91155708	     -4.26245177	     -3.33257001	      0.95663728	      0.91631815	      0.43270654	     25.89776634	     -6.34031382	     -5.56316559	     63.35334529	     63.35334529	      9.73697834	    -19.39523028	     18.44436440	     14.70254811	     -1.98423955	     -5.97992010	     32.27764486	     32.27764486	     22.62670133	    -18.15690791	     10.01966700	    -12.33387942	      8.44960036	      1.93064083	     10.72101341	    -13.12071536	    -10.59737476	     24.35133459	     46.97893177	      0.00000000	      0.00000000	     22.20761096	    -16.95374926	      9.12702668	     50.05063561	     46.00807243	      0.00000000	      0.00000000
     34.67600000	     -2.02724052	     -4.34755635	     -4.02800261	      0.95528507	      0.91750567	      0.43356292	     26.67368176	     -5.71708562	     -5.27915370	     61.16145182	     61.16145182	      9.54169916	    -19.28010425	     15.60400831	     13.95614096	     -2.16689210	     -6.60945696	     31.41458575	     31.41458575	     22.50716600	    -18.08975529	      9.64551782	    -12.41609034	      8.75992678	      1.75571121	      7.49670799	    -12.70088787	    -11.68399757	     23.64812200	     47.06256304	      0.00000000	      0.00000000	     23.15030618	    -17.25223282	      7.66682633	     51.41028785	     46.20801123	      0.00000000	      0.00000000
     34.69550000	     -2.17607562	     -4.45716898	     -4.76011247	      0.95384181	      0.91922396	      0.43489409	     27.39132211	     -4.93551133	     -4.87962577	     58.45961285	     58.45961285	      9.79795445	    -19.04737984	     14.75057439	     13.08954607	     -2.37764873	     -7.26912653	     30.26202629	     30.26202629	     22.38579594	    -17.96549666	      9.71718792	    -12.48836247	      9.06241908	      1.70662779	      4.43905471	    -12.44314672	    -11.88683515	     22.61818424	     47.09328140	      0.00000000	      0.00000000	     24.34632435	    -17.76126617	      7.06453875	     52.58406122	     46.29247051	      0.00000000	      0.00000000
     34.71500000	     -2.45268121	     -4.57392679	     -5.49783653	      0.95236935	      0.92104779	      0.43653610	     27.88202579	     -4.27365520	     -4.78727572	     54.85030392	     54.85030392	      8.49993396	    -18.76019812	      9.24345305	     12.22967197	     -2.61917832	     -8.01754118	     28.84043947	     28.84043947	     21.77209203	    -17.83957952	      8.71761425	    -12.49066945	      9.37323151	      1.52143805	      1.05383424	    -12.11395477	    -12.96084834	     23.23500176	     47.11764454	      0.00000000	      0.00000000	     25.06492715	    -18.37090892	      5.61202501	     54.79203981	     46.48505876	      0.00000000	      0.00000000
     34.73450000	     -2.73091950	     -4.64879865	     -6.25783714	      0.95086523	      0.92309247	      0.43851024	     28.18105831	     -3.61365869	     -4.68030477	     50.70225736	     50.70225736	      7.25837732	    -18.24454715	      4.58526550	     11.26986379	     -2.79433069	     -8.78578983	     27.22568143	     27.22568143	     21.20292566	    -17.65226055	      8.10006125	    -12.46418368	      9.62024951	      1.36961425	     -1.90831246	    -11.86553956	    -13.73318410	     23.21982329	     47.14370365	      0.00000000	      0.00000000	     26.07823559	    -19.05060695	      4.61991719	     56.40728628	     46.63269194	      0.00000000	      0.00000000
